<?xml version="1.0" encoding="UTF-8"?>
<svg id="Layer_1" data-name="Layer 1" xmlns="http://www.w3.org/2000/svg" viewBox="0 0 100 100">
  <g id="uIZ3hM.tif">
    <g>
      <path d="M67.38,100H8.83c-.67-.47-1.22-1.06-1.72-1.71-5.09-6.66-6.42-14.01-3.87-21.99,5.76-18.08,11.57-36.15,17.36-54.22.68,0,1.37.03,2.05.03,16.78,0,33.55,0,50.33,0,2.15,0,4.29-.02,6.44-.03,0,.08.02.16.03.24-.13.33-.28.66-.39,1-2.48,7.74-4.95,15.49-7.43,23.23-3.1,9.66-6.17,19.33-9.33,28.97-1.78,5.44-1.98,10.83-.03,16.25,1.12,3.11,2.93,5.79,5.12,8.23ZM34.24,61.55c1.76-.06,3.29-.65,4.52-1.94.69-.72.71-1.65.1-2.25-.62-.61-1.42-.58-2.18.07-1.69,1.44-3.29,1.45-4.95.02-.79-.68-1.64-.7-2.25-.03-.58.63-.52,1.53.2,2.25,1.25,1.27,2.78,1.85,4.55,1.89ZM21.05,57.25c0-.49.06-.98-.01-1.46-.13-.79-.61-1.29-1.45-1.3-.89-.01-1.44.5-1.51,1.34-.09.97-.08,1.95,0,2.92.06.8.6,1.29,1.41,1.37.74.08,1.44-.51,1.56-1.32.07-.51.01-1.04.02-1.56ZM47.35,57.22s-.04,0-.06,0c.03.55,0,1.11.09,1.65.13.76.66,1.22,1.42,1.24.81.02,1.42-.45,1.5-1.25.11-1.03.11-2.08.01-3.11-.07-.79-.63-1.27-1.47-1.27-.85,0-1.34.49-1.48,1.28-.08.47-.02.97-.02,1.46Z" style="fill: #f49e1e; stroke-width: 0px;"/>
      <path d="M79.44,22.32c1.61,4.97,3.22,9.94,4.82,14.92,4.22,13.17,8.42,26.35,12.66,39.52.5,1.54.63,3.15,1.11,4.69v4.88c-.28.12-.19.38-.22.59-.68,4.52-2.46,8.54-5.45,12.02-.39.45-.81.83-1.36,1.06h-23.62c-2.19-2.44-4-5.12-5.12-8.23-1.95-5.42-1.75-10.82.03-16.25,3.16-9.64,6.23-19.31,9.33-28.97,2.48-7.74,4.95-15.49,7.43-23.23.11-.34.26-.66.39-1Z" style="fill: #e85a24; stroke-width: 0px;"/>
      <path d="M20.59,22.09c0-3.44-.25-6.9.13-10.33C21.44,5.41,27.11.14,33.51.08c10.99-.1,21.98-.11,32.98,0,6.96.07,12.67,5.96,12.92,13.13.1,2.96,0,5.92,0,8.88-2.15.01-4.29.03-6.44.03-16.78,0-33.55,0-50.33,0-.68,0-1.37-.02-2.05-.03ZM49.99,15.1c4.26,0,8.52-.02,12.78.02.74,0,.96-.17.85-.93-.6-4.17-3.89-7.09-8.1-7.11-3.71-.02-7.41-.02-11.12,0-4.13.02-7.47,3.01-8.02,7.09-.1.71.05.96.83.95,4.26-.04,8.52-.02,12.78-.02Z" style="fill: #e85a24; stroke-width: 0px;"/>
      <path d="M34.24,61.55c-1.77-.03-3.31-.62-4.55-1.89-.71-.73-.78-1.62-.2-2.25.61-.66,1.45-.65,2.25.03,1.66,1.43,3.26,1.42,4.95-.02.76-.65,1.56-.67,2.18-.07.62.61.59,1.54-.1,2.25-1.23,1.28-2.77,1.88-4.52,1.94Z" style="fill: #333; stroke-width: 0px;"/>
      <path d="M21.05,57.25c0,.52.06,1.05-.01,1.56-.12.81-.82,1.39-1.56,1.32-.81-.08-1.35-.57-1.41-1.37-.08-.97-.08-1.95,0-2.92.08-.84.62-1.35,1.51-1.34.85.01,1.33.5,1.45,1.3.08.47.01.97.01,1.46Z" style="fill: #333; stroke-width: 0px;"/>
      <path d="M47.35,57.22c0-.49-.07-.99.02-1.46.14-.79.63-1.27,1.48-1.28.85,0,1.4.48,1.47,1.27.1,1.03.09,2.08-.01,3.11-.08.8-.69,1.27-1.5,1.25-.76-.02-1.29-.48-1.42-1.24-.09-.54-.06-1.1-.09-1.65.02,0,.04,0,.06,0Z" style="fill: #333; stroke-width: 0px;"/>
    </g>
  </g>
</svg>